<svg width="1200" height="700" viewBox="0 0 1200 700" fill="none" xmlns="http://www.w3.org/2000/svg">
  <defs>
    <linearGradient id="bg" x1="0" y1="0" x2="1" y2="1">
      <stop offset="0" stop-color="#fbe6dd"/>
      <stop offset="0.6" stop-color="#e4f4ff"/>
      <stop offset="1" stop-color="#f8f7f3"/>
    </linearGradient>
    <filter id="shadow" x="-20%" y="-20%" width="140%" height="140%">
      <feDropShadow dx="0" dy="12" stdDeviation="18" flood-color="#0f172a" flood-opacity="0.15"/>
    </filter>
  </defs>
  <rect width="1200" height="700" fill="url(#bg)"/>
  <rect x="80" y="80" width="1040" height="540" rx="24" fill="#ffffff" filter="url(#shadow)"/>
  <rect x="120" y="130" width="520" height="52" rx="26" fill="#ff6b4a"/>
  <rect x="120" y="210" width="420" height="18" rx="9" fill="#e2e8f0"/>
  <rect x="120" y="240" width="320" height="18" rx="9" fill="#e2e8f0"/>
  <rect x="700" y="130" width="320" height="160" rx="20" fill="#fef7f4"/>
  <rect x="730" y="170" width="140" height="60" rx="12" fill="#ffd8cd"/>
  <rect x="120" y="320" width="260" height="140" rx="18" fill="#fef7f4"/>
  <rect x="410" y="320" width="260" height="140" rx="18" fill="#f3f7ff"/>
  <rect x="700" y="320" width="260" height="140" rx="18" fill="#f3f7ff"/>
  <rect x="120" y="500" width="880" height="90" rx="16" fill="#0f172a" fill-opacity="0.06"/>
  <text x="140" y="165" font-family="Space Grotesk, sans-serif" font-size="24" fill="#ffffff">Choose stats dump</text>
  <text x="730" y="160" font-family="Space Grotesk, sans-serif" font-size="16" fill="#334155">Overall Quality</text>
  <text x="730" y="215" font-family="Space Grotesk, sans-serif" font-size="40" fill="#11845b">86</text>
  <text x="140" y="360" font-family="Space Grotesk, sans-serif" font-size="14" fill="#334155">Top Issues</text>
  <text x="430" y="360" font-family="Space Grotesk, sans-serif" font-size="14" fill="#334155">Metric Summary</text>
  <text x="720" y="360" font-family="Space Grotesk, sans-serif" font-size="14" fill="#334155">Deep Dive</text>
</svg>
